<svg width="48" height="48" viewBox="0 0 48 48" fill="none" xmlns="http://www.w3.org/2000/svg">
<path d="M45.6178 13.5891H2.3822L3.1847 12.3281L8.96158 3.25031H39.0385L44.8153 12.3281L45.6178 13.5891Z" fill="#2FC1F1"/>
<path d="M24 13.5891V18.0928C24 19.5853 22.7906 20.7956 21.2981 20.7956C19.8056 20.7956 18.5953 19.5853 18.5953 18.0928V13.5891H24ZM45.6178 13.5891V18.0928C45.6178 19.5853 44.4075 20.7947 42.915 20.7947C42.7444 20.7947 42.5775 20.7797 42.4153 20.7478H42.4144C41.1619 20.5144 40.2132 19.4137 40.2132 18.0928V13.5891H45.6178Z" fill="#FFC035"/>
<path d="M40.2131 14.49V18.0928C40.2131 19.5853 39.0037 20.7956 37.5112 20.7956C36.0187 20.7956 34.8084 19.5853 34.8084 18.0928V13.5891H40.2131V14.49Z" fill="#2FC1F1"/>
<path d="M34.8084 13.5891V18.0928C34.8084 19.5853 33.599 20.7956 32.1065 20.7956C30.614 20.7956 29.4047 19.5853 29.4047 18.0928V13.5891H34.8084Z" fill="#FFC035"/>
<path d="M29.4047 13.5891V18.0928C29.4047 19.5853 28.1944 20.7956 26.7019 20.7956C25.2094 20.7956 24 19.5853 24 18.0928V13.5891H29.4047ZM18.5953 13.5891V18.0928C18.5953 19.5853 17.386 20.7956 15.8935 20.7956C14.401 20.7956 13.1916 19.5853 13.1916 18.0928V13.5891H18.5953Z" fill="#2FC1F1"/>
<path d="M13.1916 13.5891V18.0928C13.1916 19.5853 11.9812 20.7956 10.4887 20.7956C8.99718 20.7956 7.78687 19.5853 7.78687 18.0928V13.5891H13.1916Z" fill="#FFC035"/>
<path d="M7.78689 13.5891V18.0928C7.78689 19.1137 7.22158 20.0025 6.38627 20.4619C5.98775 20.6815 5.54002 20.7963 5.08502 20.7956C3.59251 20.7956 2.3822 19.5853 2.3822 18.0928V13.5891H7.78689Z" fill="#2FC1F1"/>
<path d="M45.3675 42.9478V44.7497H3.93378V42.9478H42.4153H45.3675Z" fill="#526471"/>
<path d="M20.7975 40.8966H42.4153V42.9478H20.7975V40.8966Z" fill="#303C44"/>
<path d="M20.7975 40.8966V42.9478H9.98907V27.3853H20.7975V40.8966Z" fill="#A7B7C1"/>
<path d="M24.4003 22.8816H38.8116V38.1938H24.4003V22.8816Z" fill="#2FC1F1"/>
<path d="M40.2131 18.0928C40.2131 19.4138 41.1619 20.5144 42.4144 20.7478H42.4153V40.8966H20.7975V27.3853H9.98904V42.9478H6.38623V20.4619C7.22154 20.0025 7.78685 19.1138 7.78685 18.0928C7.78685 19.5853 8.99717 20.7956 10.4887 20.7956C11.9812 20.7956 13.1915 19.5853 13.1915 18.0928C13.1915 19.5853 14.4009 20.7956 15.8934 20.7956C17.3859 20.7956 18.5953 19.5853 18.5953 18.0928C18.5953 19.5853 19.8056 20.7956 21.2981 20.7956C22.7906 20.7956 24 19.5853 24 18.0928C24 19.5853 25.2094 20.7956 26.7019 20.7956C28.1944 20.7956 29.4047 19.5853 29.4047 18.0928C29.4047 19.5853 30.614 20.7956 32.1065 20.7956C33.599 20.7956 34.8084 19.5853 34.8084 18.0928C34.8084 19.5853 36.0187 20.7956 37.5112 20.7956C39.0037 20.7956 40.2131 19.5853 40.2131 18.0928ZM38.8115 38.1938V22.8816H24.4003V38.1938H38.8115Z" fill="#ECEFF0"/>
<path opacity="0.2" d="M42.4144 20.7478C41.1619 20.5144 40.2131 19.4138 40.2131 18.0928C40.2131 19.5853 39.0037 20.7956 37.5112 20.7956C36.0187 20.7956 34.8084 19.5853 34.8084 18.0928C34.8084 19.5853 33.599 20.7956 32.1065 20.7956C30.614 20.7956 29.4047 19.5853 29.4047 18.0928C29.4047 19.5853 28.1944 20.7956 26.7019 20.7956C25.2094 20.7956 24 19.5853 24 18.0928C24 19.5853 22.7906 20.7956 21.2981 20.7956C19.8056 20.7956 18.5953 19.5853 18.5953 18.0928C18.5953 19.5853 17.3859 20.7956 15.8934 20.7956C14.4009 20.7956 13.1915 19.5853 13.1915 18.0928C13.1915 19.5853 11.9812 20.7956 10.4887 20.7956C8.99717 20.7956 7.78685 19.5853 7.78685 18.0928C7.78685 19.1138 7.22154 20.0025 6.38623 20.4619V21.4463C7.22154 20.9869 7.78685 20.0981 7.78685 19.0772C7.78685 20.5697 8.99717 21.78 10.4887 21.78C11.9812 21.78 13.1915 20.5697 13.1915 19.0772C13.1915 20.5697 14.4009 21.78 15.8934 21.78C17.3859 21.78 18.5953 20.5697 18.5953 19.0772C18.5953 20.5697 19.8056 21.78 21.2981 21.78C22.7906 21.78 24 20.5697 24 19.0772C24 20.5697 25.2094 21.78 26.7019 21.78C28.1944 21.78 29.4047 20.5697 29.4047 19.0772C29.4047 20.5697 30.614 21.78 32.1065 21.78C33.599 21.78 34.8084 20.5697 34.8084 19.0772C34.8084 20.5697 36.0187 21.78 37.5112 21.78C39.0037 21.78 40.2131 20.5697 40.2131 19.0772C40.2131 20.3981 41.1619 21.4988 42.4144 21.7322H42.4153V20.7478H42.4144Z" fill="#303C44"/>
<path opacity="0.2" d="M7.7869 13.5891V18.0928C7.7869 19.1137 7.22158 20.0025 6.38627 20.4619C5.98776 20.6815 5.54003 20.7963 5.08502 20.7956V13.5891H7.7869Z" fill="url(#paint0_linear_40_35)"/>
<path opacity="0.2" d="M13.1911 13.5891V18.0928C13.1911 19.1137 12.6258 20.0025 11.7904 20.4619C11.3919 20.6815 10.9442 20.7963 10.4892 20.7956V13.5891H13.1911Z" fill="url(#paint1_linear_40_35)"/>
<path opacity="0.2" d="M18.5953 13.5891V18.0928C18.5953 19.1137 18.03 20.0025 17.1947 20.4619C16.7962 20.6815 16.3484 20.7963 15.8934 20.7956V13.5891H18.5953Z" fill="url(#paint2_linear_40_35)"/>
<path opacity="0.2" d="M23.9995 13.5891V18.0928C23.9995 19.1137 23.4342 20.0025 22.5989 20.4619C22.2004 20.6815 21.7527 20.7963 21.2977 20.7956V13.5891H23.9995Z" fill="url(#paint3_linear_40_35)"/>
<path opacity="0.2" d="M29.4038 13.5891V18.0928C29.4038 19.1137 28.8385 20.0025 28.0032 20.4619C27.6046 20.6815 27.1569 20.7963 26.7019 20.7956V13.5891H29.4038Z" fill="url(#paint4_linear_40_35)"/>
<path opacity="0.2" d="M34.808 13.5891V18.0928C34.808 19.1137 34.2426 20.0025 33.4073 20.4619C33.0088 20.6815 32.5611 20.7963 32.1061 20.7956V13.5891H34.808Z" fill="url(#paint5_linear_40_35)"/>
<path opacity="0.2" d="M40.2122 13.5891V18.0928C40.2122 19.1137 39.6469 20.0025 38.8116 20.4619C38.4131 20.6815 37.9653 20.7963 37.5103 20.7956V13.5891H40.2122Z" fill="url(#paint6_linear_40_35)"/>
<path opacity="0.2" d="M45.6164 13.5891V18.0928C45.6164 19.1137 45.0511 20.0025 44.2158 20.4619C43.8173 20.6815 43.3696 20.7963 42.9146 20.7956V13.5891H45.6164Z" fill="url(#paint7_linear_40_35)"/>
<path d="M11.2397 35.0644H19.5469V41.8856H11.2397V35.0644Z" fill="#303C44"/>
<path opacity="0.1" d="M38.8116 26.2959V38.1937H24.4003V35.6981L38.8116 26.2959Z" fill="url(#paint8_linear_40_35)"/>
<path opacity="0.2" d="M15.3933 27.3853H20.7975V42.9478H15.3933V27.3853Z" fill="url(#paint9_linear_40_35)"/>
<path opacity="0.2" d="M20.7975 41.9222H42.4153V42.9478H20.7975V41.9222ZM3.93378 43.7241H45.3675V44.7497H3.93378V43.7241Z" fill="black"/>
<path opacity="0.2" d="M45.6178 13.5891H2.3822L3.1847 12.3281H44.8153L45.6178 13.5891Z" fill="#303C44"/>
<defs>
<linearGradient id="paint0_linear_40_35" x1="3.6153" y1="18.25" x2="8.76227" y2="15.2784" gradientUnits="userSpaceOnUse">
<stop/>
<stop offset="1" stop-color="white" stop-opacity="0"/>
</linearGradient>
<linearGradient id="paint1_linear_40_35" x1="9.01948" y1="18.25" x2="14.1664" y2="15.2784" gradientUnits="userSpaceOnUse">
<stop/>
<stop offset="1" stop-color="white" stop-opacity="0"/>
</linearGradient>
<linearGradient id="paint2_linear_40_35" x1="14.4237" y1="18.25" x2="19.5707" y2="15.2784" gradientUnits="userSpaceOnUse">
<stop/>
<stop offset="1" stop-color="white" stop-opacity="0"/>
</linearGradient>
<linearGradient id="paint3_linear_40_35" x1="19.828" y1="18.25" x2="24.9749" y2="15.2784" gradientUnits="userSpaceOnUse">
<stop/>
<stop offset="1" stop-color="white" stop-opacity="0"/>
</linearGradient>
<linearGradient id="paint4_linear_40_35" x1="25.2322" y1="18.25" x2="30.3792" y2="15.2784" gradientUnits="userSpaceOnUse">
<stop/>
<stop offset="1" stop-color="white" stop-opacity="0"/>
</linearGradient>
<linearGradient id="paint5_linear_40_35" x1="30.6364" y1="18.25" x2="35.7833" y2="15.2784" gradientUnits="userSpaceOnUse">
<stop/>
<stop offset="1" stop-color="white" stop-opacity="0"/>
</linearGradient>
<linearGradient id="paint6_linear_40_35" x1="36.0406" y1="18.25" x2="41.1876" y2="15.2784" gradientUnits="userSpaceOnUse">
<stop/>
<stop offset="1" stop-color="white" stop-opacity="0"/>
</linearGradient>
<linearGradient id="paint7_linear_40_35" x1="41.4448" y1="18.25" x2="46.5918" y2="15.2784" gradientUnits="userSpaceOnUse">
<stop/>
<stop offset="1" stop-color="white" stop-opacity="0"/>
</linearGradient>
<linearGradient id="paint8_linear_40_35" x1="29.7298" y1="30.3687" x2="38.1833" y2="38.8221" gradientUnits="userSpaceOnUse">
<stop/>
<stop offset="1" stop-color="white" stop-opacity="0"/>
</linearGradient>
<linearGradient id="paint9_linear_40_35" x1="15.3933" y1="35.1666" x2="20.7975" y2="35.1666" gradientUnits="userSpaceOnUse">
<stop/>
<stop offset="1" stop-color="white" stop-opacity="0"/>
</linearGradient>
</defs>
</svg>
